<svg width="146" height="42" viewBox="0 0 146 42" fill="none" xmlns="http://www.w3.org/2000/svg">
<path d="M42.7141 11.6495H53.6886V14.0341H45.5347V19.1367H52.663V21.547H45.5347V28.7522H42.7141V11.6495ZM56.7337 11.3931H59.6055V13.829H56.7337V11.3931ZM56.8106 15.9572H59.503L59.5286 28.7522H56.8106V15.9572ZM63.3944 16.9316C64.1637 16.5384 65.0953 16.2222 66.1893 15.9828C67.3004 15.7264 68.3603 15.5982 69.3688 15.5982C71.1637 15.5982 72.4885 15.9743 73.3432 16.7264C74.1979 17.4786 74.6253 18.6495 74.6253 20.2393V28.7522H71.933V20.5983C71.933 18.8034 70.9159 17.9059 68.8817 17.9059C67.9073 17.9059 66.9757 18.0683 66.0868 18.3931V28.7522H63.3944V16.9316ZM83.9828 15.5982C85.3845 15.5982 86.5725 15.9401 87.5469 16.6239C88.5384 17.2905 89.0255 18.376 89.0085 19.8803V26.0342C89.0085 27.1966 88.4956 28.0086 87.47 28.4701C86.4443 28.9146 84.9828 29.1368 83.0853 29.1368C81.5639 29.1368 80.3075 28.8206 79.3161 28.1881C78.3246 27.5556 77.8289 26.4958 77.8289 25.0086C77.8289 23.6068 78.2306 22.5556 79.034 21.8547C79.8545 21.1538 81.0084 20.8034 82.4956 20.8034C84.034 20.8034 85.3161 21.1111 86.3418 21.7265V20.4957C86.3418 18.7521 85.2905 17.8803 83.1879 17.8803C82.4357 17.8803 81.6836 18 80.9315 18.2393C80.1793 18.4615 79.5554 18.7777 79.0596 19.188V16.6752C79.5383 16.3675 80.2306 16.111 81.1366 15.9059C82.0597 15.7008 83.0084 15.5982 83.9828 15.5982ZM83.393 27.0342C84.4699 27.0342 85.2306 26.9573 85.6751 26.8035C86.1195 26.6496 86.3418 26.3419 86.3418 25.8804V23.3932C85.47 23.0171 84.5127 22.8291 83.4699 22.8291C82.4956 22.8291 81.752 23 81.2391 23.3419C80.7434 23.6838 80.4955 24.1966 80.4955 24.8804C80.4955 25.5983 80.7776 26.1368 81.3417 26.4958C81.9229 26.8547 82.6067 27.0342 83.393 27.0342ZM92.8168 16.9316C93.586 16.5384 94.5177 16.2222 95.6117 15.9828C96.7228 15.7264 97.7826 15.5982 98.7912 15.5982C100.586 15.5982 101.911 15.9743 102.766 16.7264C103.62 17.4786 104.048 18.6495 104.048 20.2393V28.7522H101.355V20.5983C101.355 18.8034 100.338 17.9059 98.304 17.9059C97.3296 17.9059 96.398 18.0683 95.5091 18.3931V28.7522H92.8168V16.9316ZM113.508 29.0086C111.696 29.0086 110.183 28.4872 108.969 27.4445C107.773 26.4017 107.174 24.718 107.174 22.3932C107.174 20 107.764 18.2735 108.944 17.2136C110.14 16.1367 111.653 15.5982 113.482 15.5982C114.867 15.5982 116.183 15.8546 117.431 16.3675V18.7777C116.132 18.2307 114.944 17.9572 113.867 17.9572C112.516 17.9572 111.508 18.2991 110.841 18.9829C110.174 19.6495 109.841 20.7179 109.841 22.188C109.841 23.7265 110.166 24.8547 110.815 25.5727C111.465 26.2735 112.508 26.624 113.944 26.624C115.106 26.624 116.277 26.3419 117.456 25.7778V28.1881C116.226 28.7351 114.909 29.0086 113.508 29.0086ZM125.869 15.5726C127.869 15.5726 129.331 16.2222 130.254 17.5213C131.194 18.8034 131.656 20.6068 131.638 22.9316H122.613C122.698 24.1966 123.066 25.1624 123.715 25.8291C124.382 26.4787 125.322 26.8035 126.536 26.8035C127.322 26.8035 128.074 26.7094 128.792 26.5214C129.51 26.3163 130.143 26.0599 130.69 25.7522V28.265C129.356 28.8462 127.826 29.1368 126.1 29.1368C124.168 29.1368 122.647 28.5556 121.536 27.3932C120.442 26.2137 119.895 24.547 119.895 22.3932C119.895 20.188 120.416 18.5042 121.459 17.3418C122.502 16.1623 123.972 15.5726 125.869 15.5726ZM125.792 17.7777C124.886 17.7777 124.177 18.0171 123.664 18.4957C123.151 18.9743 122.818 19.7863 122.664 20.9316H128.895C128.775 19.8376 128.467 19.0427 127.972 18.547C127.476 18.0341 126.75 17.7777 125.792 17.7777Z" fill="#EEEEEE"/>
<rect y="0.161987" width="9.45407" height="41.5979" rx="4.72703" fill="#6FCF97"/>
<path d="M13.2358 17.699C13.2358 15.3235 15.1616 13.3977 17.5371 13.3977C19.9126 13.3977 21.8383 15.3235 21.8383 17.699V29.1689C21.8383 31.5444 19.9126 33.4701 17.5371 33.4701C15.1616 33.4701 13.2358 31.5444 13.2358 29.1689V17.699Z" fill="#27AE60"/>
<rect x="13.2358" y="2.05283" width="8.60246" height="10.0362" rx="4.30123" fill="#27AE60"/>
<rect x="25.7773" y="15.7194" width="8.60246" height="10.0362" rx="4.30123" fill="#6FCF97"/>
</svg>
